<?xml version="1.0" encoding="iso-8859-1"?>
<!-- Uploaded to: SVG Repo, www.svgrepo.com, Generator: SVG Repo Mixer Tools -->
<svg fill="#000000" height="800px" width="800px" version="1.1" id="Capa_1" xmlns="http://www.w3.org/2000/svg" xmlns:xlink="http://www.w3.org/1999/xlink" 
	 viewBox="0 0 250.076 250.076" xml:space="preserve">
<path color-rendering="auto" image-rendering="auto" shape-rendering="auto" color-interpolation="sRGB" d="M4.924,0.003
	c-2.759,0.042-4.963,2.311-4.924,5.07v240c0,2.761,2.239,5,5,5h240c2.761,0.041,5.033-2.164,5.075-4.925s-2.164-5.034-4.925-5.075
	c-0.05-0.001-0.1-0.001-0.15,0H10v-235c0.039-2.761-2.168-5.032-4.93-5.07C5.022,0.002,4.973,0.002,4.924,0.003L4.924,0.003z
	 M225.272,30.015c-2.006-0.096-3.875,1.016-4.746,2.826l-23.641,47.367c-0.619-0.079-1.246-0.135-1.885-0.135
	c-8.225,0-15,6.775-15,15c0,4.011,1.62,7.669,4.225,10.373l-37.379,74.756c-0.606-0.076-1.221-0.129-1.846-0.129
	c-2.296,0-4.469,0.544-6.424,1.484l-49.941-50.301c0.868-1.891,1.365-3.982,1.365-6.183c0-8.225-6.775-15-15-15
	c-8.225,0-15,6.775-15,15c0,4.252,1.821,8.106,4.707,10.848l-34.275,77.121c-2.88,6.156,6.495,10.325,9.137,4.062l34.264-77.092
	c0.387,0.03,0.774,0.061,1.168,0.061c2.402,0,4.674-0.591,6.695-1.613l49.803,50.16c-0.949,1.962-1.498,4.146-1.498,6.453
	c0,8.225,6.775,15,15,15c8.225,0,15-6.775,15-15c0-4.012-1.619-7.671-4.225-10.375l37.379-74.752
	c0.607,0.076,1.22,0.127,1.846,0.127c8.225,0,15-6.775,15-15c0-3.997-1.607-7.643-4.195-10.344l23.668-47.424
	C231.146,34.071,228.91,30.19,225.272,30.015L225.272,30.015z M195.001,90.073c2.821,0,5,2.179,5,5c0,2.821-2.179,5-5,5
	c-2.821,0-5-2.179-5-5C190.001,92.253,192.18,90.073,195.001,90.073z M75.001,120.073c2.821,0,5,2.179,5,5c0,2.821-2.179,5-5,5
	c-2.821,0-5-2.179-5-5C70.001,122.253,72.18,120.073,75.001,120.073z M145.001,190.073c2.821,0,5,2.179,5,5c0,2.821-2.179,5-5,5
	c-2.821,0-5-2.179-5-5C140.001,192.253,142.18,190.073,145.001,190.073z"/>
</svg>