<?xml version="1.0" encoding="iso-8859-1"?>
<!-- Uploaded to: SVG Repo, www.svgrepo.com, Generator: SVG Repo Mixer Tools -->
<!DOCTYPE svg PUBLIC "-//W3C//DTD SVG 1.1//EN" "http://www.w3.org/Graphics/SVG/1.1/DTD/svg11.dtd">
<svg fill="#000000" version="1.1" id="Capa_1" xmlns="http://www.w3.org/2000/svg" xmlns:xlink="http://www.w3.org/1999/xlink" 
	 width="800px" height="800px" viewBox="0 0 42.438 42.438"
	 xml:space="preserve">
<g>
	<g>
		<path d="M26.969,4.031h-11.5c-0.275,0-0.5,0.225-0.5,0.5v4.232H8.75H2.5c-1.378,0-2.5,1.122-2.5,2.5v24.643
			c0,1.377,1.122,2.5,2.5,2.5h6.25h24.938h6.249c1.382,0,2.5-1.123,2.5-2.5V11.263c0-1.378-1.118-2.5-2.5-2.5h-6.25h-6.219V4.531
			C27.469,4.254,27.244,4.031,26.969,4.031z M15.969,5.031h10.5v3.732h-10.5V5.031z M8.25,9.763v27.643h-1V9.763H8.25z M1,35.906
			V11.263c0-0.827,0.673-1.5,1.5-1.5h3.75v27.643H2.5C1.674,37.406,1,36.732,1,35.906z M34.188,37.406V9.763h1.063v27.643H34.188z
			 M41.438,11.263v24.643c0,0.826-0.675,1.5-1.5,1.5h-3.689V9.763h3.688C40.764,9.763,41.438,10.436,41.438,11.263z M33.188,37.406
			H9.25V9.763h6.219h11.5h6.22V37.406L33.188,37.406z"/>
		<path d="M23.215,17.668c0-0.276-0.225-0.5-0.5-0.5h-2.992c-0.275,0-0.5,0.224-0.5,0.5v3.92h-3.92c-0.275,0-0.5,0.224-0.5,0.5
			v2.991c0,0.274,0.225,0.5,0.5,0.5h3.92v3.923c0,0.274,0.225,0.5,0.5,0.5h2.992c0.275,0,0.5-0.226,0.5-0.5v-3.923h3.922
			c0.275,0,0.5-0.226,0.5-0.5v-2.991c0-0.276-0.225-0.5-0.5-0.5h-3.922V17.668z M26.637,22.588v1.991h-3.922
			c-0.272,0-0.5,0.226-0.5,0.5v3.923h-1.992v-3.923c0-0.274-0.224-0.5-0.5-0.5h-3.92v-1.991h3.92c0.276,0,0.5-0.224,0.5-0.5v-3.919
			h1.992v3.919c0,0.276,0.228,0.5,0.5,0.5H26.637z"/>
	</g>
</g>
</svg>